<svg width="20" height="22" viewBox="0 0 20 22" fill="none" xmlns="http://www.w3.org/2000/svg">
<path d="M1.97689 8.84C2.01712 8.33881 2.24464 7.87115 2.61417 7.53017C2.98369 7.18918 3.46808 6.9999 3.97089 7H16.0289C16.5317 6.9999 17.0161 7.18918 17.3856 7.53017C17.7551 7.87115 17.9827 8.33881 18.0229 8.84L18.8259 18.84C18.848 19.1152 18.8129 19.392 18.7227 19.6529C18.6326 19.9139 18.4894 20.1533 18.3022 20.3562C18.115 20.5592 17.8878 20.7211 17.6349 20.8319C17.382 20.9427 17.109 20.9999 16.8329 21H3.16689C2.89081 20.9999 2.61774 20.9427 2.36487 20.8319C2.112 20.7211 1.8848 20.5592 1.69759 20.3562C1.51037 20.1533 1.36719 19.9139 1.27706 19.6529C1.18693 19.392 1.1518 19.1152 1.17389 18.84L1.97689 8.84V8.84Z" stroke="white" stroke-width="2" stroke-linecap="round" stroke-linejoin="round"/>
<path d="M13.9999 10V5C13.9999 3.93913 13.5785 2.92172 12.8283 2.17157C12.0782 1.42143 11.0607 1 9.99988 1C8.93901 1 7.9216 1.42143 7.17145 2.17157C6.42131 2.92172 5.99988 3.93913 5.99988 5V10" stroke="white" stroke-width="2" stroke-linecap="round" stroke-linejoin="round"/>
</svg>
